<svg width="1060" height="780" viewBox="0 0 1060 780" fill="none" xmlns="http://www.w3.org/2000/svg">
  <rect x="40" y="20" width="120" height="45" fill="#E3F6FC" stroke="#19AED6" stroke-width="2"/>
  <text x="56" y="50" font-size="18" fill="#19AED6" font-family="Arial">User</text>

  <rect x="240" y="20" width="120" height="45" fill="#F7F6D1" stroke="#DDC600" stroke-width="2"/>
  <text x="273" y="50" font-size="18" fill="#C1B000" font-family="Arial">Role</text>

  <rect x="140" y="90" width="120" height="45" fill="#F7F6D1" stroke="#DDC600" stroke-width="2"/>
  <text x="153" y="120" font-size="15" fill="#C1B000" font-family="Arial">UserRole</text>

  <line x1="100" y1="65" x2="170" y2="90" stroke="#999" stroke-width="2"/>
  <line x1="300" y1="65" x2="210" y2="90" stroke="#999" stroke-width="2"/>

  <rect x="440" y="20" width="140" height="45" fill="#F7F6D1" stroke="#DDC600" stroke-width="2"/>
  <text x="467" y="50" font-size="16" fill="#C1B000" font-family="Arial">Permission</text>
  <rect x="360" y="90" width="140" height="45" fill="#F7F6D1" stroke="#DDC600" stroke-width="2"/>
  <text x="380" y="120" font-size="15" fill="#C1B000" font-family="Arial">RolePermission</text>

  <line x1="300" y1="65" x2="430" y2="90" stroke="#999" stroke-width="2"/>
  <line x1="510" y1="65" x2="430" y2="90" stroke="#999" stroke-width="2"/>
  
  <rect x="40" y="160" width="120" height="45" fill="#FFECEB" stroke="#EC7373" stroke-width="2"/>
  <text x="55" y="190" font-size="16" fill="#C26C6C" font-family="Arial">UserPermission</text>
  <line x1="100" y1="135" x2="100" y2="160" stroke="#999" stroke-width="2"/>
  <line x1="510" y1="65" x2="100" y2="160" stroke="#999" stroke-width="1" stroke-dasharray="4 3"/>

  <rect x="40" y="250" width="120" height="45" fill="#FFF6E3" stroke="#FDB563" stroke-width="2"/>
  <text x="65" y="280" font-size="16" fill="#FDB563" font-family="Arial">Doctor</text>
  <rect x="200" y="250" width="120" height="45" fill="#E3F6FC" stroke="#19AED6" stroke-width="2"/>
  <text x="220" y="280" font-size="16" fill="#19AED6" font-family="Arial">Patient</text>
  <rect x="370" y="250" width="120" height="45" fill="#E3FFE6" stroke="#2CCF52" stroke-width="2"/>
  <text x="395" y="280" font-size="16" fill="#1EAB41" font-family="Arial">Specialty</text>
  <line x1="100" y1="205" x2="100" y2="250" stroke="#999" stroke-width="2"/>
  <line x1="300" y1="135" x2="260" y2="250" stroke="#999" stroke-width="2"/>
  <line x1="400" y1="250" x2="370" y2="295" stroke="#999" stroke-width="2"/>
  <line x1="160" y1="273" x2="200" y2="273" stroke="#999" stroke-width="2"/>
  <line x1="320" y1="273" x2="370" y2="273" stroke="#999" stroke-width="2"/>

  <rect x="40" y="340" width="120" height="45" fill="#E3F6FC" stroke="#19AED6" stroke-width="2"/>
  <text x="66" y="370" font-size="16" fill="#19AED6" font-family="Arial">Service</text>
  <rect x="200" y="340" width="120" height="45" fill="#FFF6E3" stroke="#FDB563" stroke-width="2"/>
  <text x="218" y="370" font-size="16" fill="#FDB563" font-family="Arial">Schedule</text>
  <rect x="370" y="340" width="120" height="45" fill="#E3F6D1" stroke="#B2E256" stroke-width="2"/>
  <text x="400" y="370" font-size="16" fill="#85A900" font-family="Arial">Date</text>
  <rect x="530" y="340" width="120" height="45" fill="#F7F6D1" stroke="#DDC600" stroke-width="2"/>
  <text x="550" y="370" font-size="16" fill="#C1B000" font-family="Arial">Appointment</text>
  <line x1="100" y1="295" x2="100" y2="340" stroke="#999" stroke-width="2"/>
  <line x1="160" y1="362" x2="200" y2="362" stroke="#999" stroke-width="2"/>
  <line x1="320" y1="362" x2="370" y2="362" stroke="#999" stroke-width="2"/>
  <line x1="490" y1="362" x2="530" y2="362" stroke="#999" stroke-width="2"/>

  <rect x="40" y="430" width="120" height="45" fill="#E3FFE6" stroke="#2CCF52" stroke-width="2"/>
  <text x="70" y="460" font-size="16" fill="#2CCF52" font-family="Arial">Invoice</text>
  <rect x="200" y="430" width="120" height="45" fill="#F6D1F7" stroke="#D03BDD" stroke-width="2"/>
  <text x="208" y="460" font-size="15" fill="#A700C1" font-family="Arial">InvoiceDetail</text>
  <line x1="100" y1="385" x2="100" y2="430" stroke="#999" stroke-width="2"/>
  <line x1="160" y1="452" x2="200" y2="452" stroke="#999" stroke-width="2"/>

  <rect x="40" y="520" width="120" height="45" fill="#FFF6E3" stroke="#FDB563" stroke-width="2"/>
  <text x="85" y="550" font-size="16" fill="#FDB563" font-family="Arial">Visit</text>
  <rect x="200" y="520" width="120" height="45" fill="#F7F6D1" stroke="#DDC600" stroke-width="2"/>
  <text x="215" y="550" font-size="15" fill="#C1B000" font-family="Arial">VisitDetail</text>
  <rect x="360" y="520" width="120" height="45" fill="#E3FFE6" stroke="#2CCF52" stroke-width="2"/>
  <text x="377" y="550" font-size="16" fill="#2CCF52" font-family="Arial">VisitInvoice</text>
  <line x1="100" y1="475" x2="100" y2="520" stroke="#999" stroke-width="2"/>
  <line x1="160" y1="542" x2="200" y2="542" stroke="#999" stroke-width="2"/>
  <line x1="260" y1="542" x2="360" y2="542" stroke="#999" stroke-width="2"/>
</svg>
